<svg width="51" height="51" viewBox="0 0 51 51" fill="none" xmlns="http://www.w3.org/2000/svg">
<g clip-path="url(#clip0_35690_360)">
<path d="M25.5 7.34613C24.6202 7.34613 23.9062 6.63212 23.9062 5.75238V1.59375C23.9062 0.714 24.6202 0 25.5 0C26.3798 0 27.0938 0.714 27.0938 1.59375V5.75238C27.0938 6.63212 26.3798 7.34613 25.5 7.34613Z" fill="#7559FF"/>
<path d="M39.4633 13.1304C39.0553 13.1304 38.6473 12.9753 38.3371 12.6629C37.7145 12.0403 37.7145 11.0309 38.3371 10.4083L41.2781 7.46725C41.9007 6.84463 42.9101 6.84463 43.5327 7.46725C44.1553 8.08988 44.1553 9.09925 43.5327 9.72188L40.5917 12.6629C40.2793 12.9731 39.8713 13.1304 39.4633 13.1304Z" fill="#7559FF"/>
<path d="M49.4063 27.0938H45.2477C44.3679 27.0938 43.6539 26.3798 43.6539 25.5C43.6539 24.6202 44.3679 23.9062 45.2477 23.9062H49.4063C50.2861 23.9062 51.0001 24.6202 51.0001 25.5C51.0001 26.3798 50.2861 27.0938 49.4063 27.0938Z" fill="#7559FF"/>
<path d="M42.4043 43.9981C41.9963 43.9981 41.5883 43.843 41.2781 43.5306L38.3371 40.5896C37.7145 39.967 37.7145 38.9576 38.3371 38.335C38.9597 37.7124 39.9691 37.7124 40.5917 38.335L43.5327 41.276C44.1553 41.8986 44.1553 42.908 43.5327 43.5306C43.2203 43.843 42.8123 43.9981 42.4043 43.9981Z" fill="#7559FF"/>
<path d="M8.59566 43.9981C8.18766 43.9981 7.77966 43.843 7.46941 43.5306C6.84679 42.908 6.84679 41.8986 7.46941 41.276L10.4104 38.335C11.033 37.7124 12.0424 37.7124 12.665 38.335C13.2877 38.9576 13.2877 39.967 12.665 40.5896L9.72404 43.5306C9.41166 43.843 9.00366 43.9981 8.59566 43.9981Z" fill="#7559FF"/>
<path d="M5.75238 27.0938H1.59375C0.714 27.0938 0 26.3798 0 25.5C0 24.6202 0.714 23.9062 1.59375 23.9062H5.75238C6.63212 23.9062 7.34613 24.6202 7.34613 25.5C7.34613 26.3798 6.63212 27.0938 5.75238 27.0938Z" fill="#7559FF"/>
<path d="M11.5367 13.1304C11.1287 13.1304 10.7207 12.9753 10.4104 12.6629L7.46941 9.72188C6.84679 9.09925 6.84679 8.08988 7.46941 7.46725C8.09204 6.84463 9.10141 6.84463 9.72404 7.46725L12.665 10.4083C13.2877 11.0309 13.2877 12.0403 12.665 12.6629C12.3505 12.9731 11.9447 13.1304 11.5367 13.1304Z" fill="#7559FF"/>
<path d="M31.875 44.625V47.2812C31.875 49.3212 30.1962 51 28.1562 51H22.8438C21.0588 51 19.125 49.64 19.125 46.665V44.625H31.875Z" fill="#7559FF"/>
<path d="M34.8713 13.94C31.3863 11.1138 26.7963 10.0088 22.3125 10.965C16.6813 12.1338 12.1125 16.7238 10.9438 22.355C9.7538 28.135 11.9213 33.8725 16.5538 37.3787C17.8075 38.3138 18.6788 39.7588 18.9763 41.4375V41.4588C19.0188 41.4375 19.0825 41.4375 19.125 41.4375H31.875C31.9175 41.4375 31.9388 41.4375 31.9813 41.4588V41.4375C32.2788 39.8225 33.235 38.335 34.7013 37.1875C38.2925 34.34 40.375 30.09 40.375 25.5C40.375 20.995 38.3775 16.7875 34.8713 13.94ZM33.4688 26.5625C32.5975 26.5625 31.875 25.84 31.875 24.9688C31.875 21.7388 29.2613 19.125 26.0313 19.125C25.16 19.125 24.4375 18.4025 24.4375 17.5313C24.4375 16.66 25.16 15.9375 26.0313 15.9375C31.0038 15.9375 35.0625 19.9963 35.0625 24.9688C35.0625 25.84 34.34 26.5625 33.4688 26.5625Z" fill="#7559FF"/>
<path d="M18.9762 41.4375H19.1249C19.0824 41.4375 19.0187 41.4375 18.9762 41.4588V41.4375Z" fill="#7559FF"/>
<path d="M31.9813 41.4375V41.4588C31.9388 41.4375 31.9175 41.4375 31.875 41.4375H31.9813Z" fill="#7559FF"/>
</g>
<defs>
<clipPath id="clip0_35690_360">
<rect width="51" height="51" fill="white"/>
</clipPath>
</defs>
</svg>
