<svg width="512" height="512" viewBox="0 0 512 512" fill="none" xmlns="http://www.w3.org/2000/svg">
<rect width="512" height="512" rx="105.793" fill="#7559FF"/>
<path d="M441.419 214.716C437.18 236.971 424.509 257.345 405.748 272.08C404.972 272.688 404.232 273.246 403.517 273.779C407.385 283.712 409.348 294.213 409.348 305.019C409.348 352.515 370.705 391.158 323.203 391.158C304.432 391.158 286.228 385.013 271.326 373.741C272.411 372.448 273.466 371.124 274.49 369.78C281.381 360.714 286.756 350.684 290.457 339.97C299.31 348.271 310.973 352.946 323.198 352.946C349.631 352.946 371.136 331.447 371.136 305.019C371.136 295.171 368.174 285.715 362.576 277.678L349.646 259.119L370.106 249.475C374.33 247.482 378.376 244.977 382.144 242.021C405.093 224.005 411.67 193.932 396.803 174.983C389.37 165.526 377.814 160.314 364.26 160.314C340.859 160.314 323.37 174.689 310.963 191.391C306.181 197.821 302.155 204.595 298.829 211.025C293.287 221.754 288.515 233.807 284.651 246.843C278.693 266.933 275.276 288.139 275.276 305.019C275.276 314.572 273.714 323.967 270.631 332.932C267.655 341.598 263.314 349.711 257.742 357.048C254.146 361.774 250.07 366.13 245.628 369.993C229.96 383.643 209.895 391.158 189.131 391.158C181.165 391.158 173.443 390.073 166.116 388.035C129.754 377.944 102.987 344.549 102.987 305.019C102.987 294.213 104.949 283.712 108.823 273.779C108.047 273.206 107.312 272.643 106.592 272.075C87.8254 257.345 75.159 236.971 70.92 214.711C66.4934 191.483 71.6654 168.994 85.4777 151.394C100.096 132.78 122.914 122.101 148.074 122.101C170.268 122.101 190.713 129.505 208.846 144.098C222.283 154.908 234.189 169.527 244.294 187.604C240.831 194.606 237.596 202.045 234.665 209.752C231.045 219.259 227.901 229.096 225.269 239.162C221.892 229.061 217.952 219.624 213.506 211.02C201.549 187.888 180.491 160.308 148.074 160.308C134.521 160.308 122.96 165.521 115.531 174.983C100.669 193.927 107.246 224 130.195 242.016C133.958 244.972 138.009 247.477 142.233 249.47L162.693 259.114L149.763 277.673C144.165 285.715 141.204 295.166 141.204 305.014C141.204 323.105 151.284 338.89 166.121 347.044C172.956 350.801 180.8 352.941 189.136 352.941C203.202 352.941 216.518 346.76 225.67 335.99C233.022 327.334 237.069 316.331 237.069 305.014C237.069 296.83 237.753 283.321 241.003 265.417C244.031 248.72 248.518 232.514 254.334 217.241C257.245 209.605 260.47 202.258 263.923 195.417L264.065 195.133C264.338 194.581 264.617 194.033 264.901 193.48C268.572 186.376 272.502 179.769 276.68 173.664C284.743 161.875 293.718 151.977 303.509 144.098C321.636 129.499 342.081 122.101 364.28 122.101C389.441 122.101 412.258 132.775 426.877 151.389L427.298 151.937C440.785 169.456 445.8 191.721 441.419 214.716Z" fill="white"/>
</svg>
