<svg width="1639" height="322" viewBox="0 0 1639 322" fill="none" xmlns="http://www.w3.org/2000/svg">
<path d="M530.264 218.039H550.118C567.186 218.039 580.596 212.815 590.349 202.365C600.101 191.916 604.978 177.896 604.978 160.306C604.978 142.716 600.101 128.696 590.349 118.247C580.596 107.798 567.186 102.573 550.118 102.573H530.264V218.039ZM550.118 68.6121C579.377 68.6121 603.41 77.1458 622.219 94.2132C641.028 111.107 650.433 133.137 650.433 160.306C650.433 187.3 641.028 209.331 622.219 226.399C603.41 243.466 579.377 252 550.118 252H485.593V68.6121H550.118ZM740.627 253.829C719.38 253.829 701.964 247.037 688.379 233.452C674.795 219.694 668.003 201.494 668.003 178.854C668.003 156.213 674.708 138.188 688.118 124.778C701.703 111.368 719.205 104.663 740.627 104.663C762.048 104.663 779.812 111.281 793.919 124.517C808.026 137.753 815.079 156.126 815.079 179.638C815.079 184.688 814.731 189.39 814.034 193.744H713.719C714.59 200.188 717.464 205.5 722.34 209.68C727.217 213.685 732.441 215.688 738.014 215.688C743.762 215.688 748.028 215.166 750.815 214.121C753.602 212.902 755.604 211.77 756.823 210.725C758.217 209.506 759.958 207.59 762.048 204.977H810.377C806.197 219.607 797.838 231.449 785.298 240.506C772.759 249.388 757.868 253.829 740.627 253.829ZM768.579 165.792C767.882 159 764.922 153.514 759.697 149.334C754.472 144.98 748.29 142.803 741.149 142.803C734.009 142.803 728 144.98 723.124 149.334C718.248 153.514 715.2 159 713.981 165.792H768.579ZM942.52 206.022C948.963 199.753 952.185 190.871 952.185 179.376C952.185 167.882 948.963 159 942.52 152.73C936.076 146.461 928.674 143.326 920.315 143.326C911.955 143.326 904.553 146.461 898.109 152.73C891.666 158.826 888.444 167.621 888.444 179.115C888.444 190.609 891.666 199.491 898.109 205.761C904.553 212.031 911.955 215.166 920.315 215.166C928.674 215.166 936.076 212.118 942.52 206.022ZM888.444 125.3C898.371 111.542 912.565 104.663 931.025 104.663C949.66 104.663 965.421 111.716 978.309 125.823C991.197 139.755 997.64 157.607 997.64 179.376C997.64 201.146 991.197 218.997 978.309 232.93C965.421 246.862 949.834 253.829 931.548 253.829C913.261 253.829 898.893 246.166 888.444 230.84V252H843.772V58.6851H888.444V125.3ZM1125.19 106.23H1169.86V252H1125.19V230.579C1115.96 245.904 1101.24 253.567 1081.04 253.567C1064.32 253.567 1050.73 247.994 1040.29 236.848C1030.01 225.702 1024.87 210.55 1024.87 191.393V106.23H1069.28V185.385C1069.28 194.789 1071.72 202.104 1076.6 207.329C1081.65 212.379 1088.53 214.904 1097.23 214.904C1105.94 214.904 1112.73 212.379 1117.61 207.329C1122.66 202.104 1125.19 194.789 1125.19 185.385V106.23ZM1271.01 214.121H1286.94V252H1264.22C1247.85 252 1235.13 248.43 1226.08 241.289C1217.19 233.975 1212.75 221.522 1212.75 203.933V143.326H1199.17V106.23H1212.75V70.702H1257.42V106.23H1286.68V143.326H1257.42V203.933C1257.42 210.725 1261.95 214.121 1271.01 214.121ZM1358.27 89.7722C1353.22 94.8228 1347.04 97.3481 1339.72 97.3481C1332.41 97.3481 1326.23 94.8228 1321.18 89.7722C1316.13 84.7216 1313.6 78.539 1313.6 71.2244C1313.6 63.7357 1316.13 57.466 1321.18 52.4154C1326.23 47.3648 1332.41 44.8396 1339.72 44.8396C1347.04 44.8396 1353.22 47.3648 1358.27 52.4154C1363.32 57.466 1365.85 63.7357 1365.85 71.2244C1365.85 78.539 1363.32 84.7216 1358.27 89.7722ZM1317.52 252V106.23H1362.19V252H1317.52ZM1465.19 106.23V143.326H1446.64V252H1401.97V143.326H1388.39V106.23H1401.97V100.744C1401.97 82.2834 1406.85 68.7862 1416.6 60.2525C1426.53 51.7188 1442.03 47.4519 1463.1 47.4519V85.3312C1457.18 85.3312 1452.91 86.4632 1450.3 88.7273C1447.86 90.9913 1446.64 94.9969 1446.64 100.744V106.23H1465.19ZM1527.35 249.126L1470.66 106.23H1521.34L1553.74 201.581L1589.26 106.23H1636.02L1543.02 321.489H1496.26L1527.35 249.126Z" fill="black"/>
<path d="M423.462 117.429C418.637 142.76 404.214 165.949 382.86 182.721C381.977 183.414 381.134 184.049 380.32 184.655C384.724 195.961 386.958 207.913 386.958 220.212C386.958 274.273 342.974 318.257 288.907 318.257C267.541 318.257 246.822 311.262 229.86 298.432C231.095 296.96 232.295 295.454 233.461 293.925C241.305 283.605 247.422 272.19 251.635 259.995C261.712 269.442 274.986 274.764 288.901 274.764C318.988 274.764 343.464 250.293 343.464 220.212C343.464 209.004 340.094 198.24 333.722 189.093L319.005 167.969L342.293 156.992C347.1 154.724 351.706 151.873 355.994 148.508C382.115 128.002 389.601 93.7722 372.679 72.2044C364.218 61.4408 351.065 55.5077 335.638 55.5077C309.003 55.5077 289.098 71.8697 274.975 90.8807C269.532 98.1989 264.95 105.909 261.164 113.228C254.856 125.44 249.425 139.159 245.027 153.997C238.246 176.863 234.356 200.999 234.356 220.212C234.356 231.086 232.578 241.78 229.069 251.984C225.681 261.847 220.741 271.081 214.398 279.433C210.306 284.812 205.666 289.769 200.61 294.167C182.777 309.704 159.939 318.257 136.305 318.257C127.238 318.257 118.448 317.022 110.109 314.702C68.722 303.217 38.2547 265.206 38.2547 220.212C38.2547 207.913 40.4882 195.961 44.8976 184.655C44.0146 184.002 43.1777 183.362 42.3582 182.715C20.9982 165.949 6.5812 142.76 1.7563 117.423C-3.28214 90.9846 2.60471 65.3884 18.326 45.3558C34.965 24.169 60.9364 12.0144 89.5741 12.0144C114.836 12.0144 138.106 20.4406 158.744 37.0508C174.039 49.3554 187.59 65.9944 199.092 86.5695C195.151 94.5398 191.468 103.006 188.132 111.779C184.012 122.6 180.433 133.797 177.438 145.253C173.594 133.757 169.11 123.016 164.048 113.222C150.439 86.8927 126.471 55.502 89.5741 55.502C74.1471 55.502 60.9883 61.435 52.5332 72.2044C35.6172 93.7664 43.1027 127.997 69.2241 148.502C73.5065 151.867 78.1179 154.718 82.9254 156.986L106.213 167.964L91.496 189.087C85.1243 198.24 81.7538 208.998 81.7538 220.206C81.7538 240.799 93.2274 258.765 110.115 268.046C117.894 272.322 126.823 274.758 136.311 274.758C152.321 274.758 167.477 267.722 177.894 255.464C186.263 245.612 190.868 233.088 190.868 220.206C190.868 210.891 191.647 195.516 195.347 175.138C198.792 156.132 203.9 137.687 210.52 120.303C213.833 111.612 217.503 103.249 221.434 95.4632L221.595 95.14C221.907 94.5109 222.224 93.8876 222.547 93.2585C226.726 85.1728 231.199 77.6527 235.954 70.7039C245.131 57.2854 255.346 46.0195 266.491 37.0508C287.124 20.4349 310.394 12.0144 335.661 12.0144C364.299 12.0144 390.27 24.1632 406.909 45.3501L407.388 45.9734C422.74 65.9136 428.448 91.2559 423.462 117.429Z" fill="black"/>
</svg>
