<svg width="512" height="512" viewBox="0 0 512 512" fill="none" xmlns="http://www.w3.org/2000/svg">
<rect width="512" height="512" rx="105.793" fill="white"/>
<path d="M441.418 214.716C437.179 236.971 424.508 257.345 405.747 272.08C404.971 272.688 404.231 273.246 403.516 273.779C407.384 283.712 409.347 294.213 409.347 305.019C409.347 352.515 370.704 391.158 323.202 391.158C304.431 391.158 286.227 385.013 271.325 373.741C272.41 372.448 273.465 371.124 274.489 369.78C281.38 360.714 286.755 350.684 290.456 339.97C299.309 348.271 310.972 352.946 323.197 352.946C349.63 352.946 371.135 331.447 371.135 305.019C371.135 295.171 368.173 285.715 362.575 277.678L349.645 259.119L370.105 249.475C374.329 247.482 378.375 244.977 382.143 242.021C405.092 224.005 411.669 193.932 396.802 174.983C389.369 165.526 377.813 160.314 364.259 160.314C340.858 160.314 323.369 174.689 310.962 191.391C306.18 197.821 302.154 204.595 298.828 211.025C293.286 221.754 288.514 233.807 284.65 246.843C278.692 266.933 275.275 288.139 275.275 305.019C275.275 314.572 273.713 323.967 270.63 332.932C267.654 341.598 263.313 349.711 257.741 357.048C254.146 361.774 250.069 366.13 245.627 369.993C229.959 383.643 209.894 391.158 189.13 391.158C181.164 391.158 173.442 390.073 166.115 388.035C129.753 377.944 102.986 344.549 102.986 305.019C102.986 294.213 104.948 283.712 108.822 273.779C108.046 273.206 107.311 272.643 106.591 272.075C87.8244 257.345 75.158 236.971 70.919 214.711C66.4924 191.483 71.6644 168.994 85.4767 151.394C100.095 132.78 122.913 122.101 148.073 122.101C170.267 122.101 190.712 129.505 208.845 144.098C222.282 154.908 234.188 169.527 244.293 187.604C240.83 194.606 237.595 202.045 234.664 209.752C231.044 219.259 227.9 229.096 225.268 239.162C221.891 229.061 217.952 219.624 213.505 211.02C201.548 187.888 180.49 160.308 148.073 160.308C134.52 160.308 122.959 165.521 115.53 174.983C100.668 193.927 107.245 224 130.194 242.016C133.957 244.972 138.008 247.477 142.232 249.47L162.692 259.114L149.762 277.673C144.164 285.715 141.203 295.166 141.203 305.014C141.203 323.105 151.283 338.89 166.12 347.044C172.955 350.801 180.799 352.941 189.135 352.941C203.201 352.941 216.517 346.76 225.669 335.99C233.021 327.334 237.068 316.331 237.068 305.014C237.068 296.83 237.752 283.321 241.002 265.417C244.03 248.72 248.517 232.514 254.333 217.241C257.244 209.605 260.469 202.258 263.922 195.417L264.064 195.133C264.337 194.581 264.616 194.033 264.9 193.48C268.571 186.376 272.501 179.769 276.679 173.664C284.742 161.875 293.717 151.977 303.508 144.098C321.635 129.499 342.08 122.101 364.279 122.101C389.44 122.101 412.257 132.775 426.876 151.389L427.297 151.937C440.784 169.456 445.799 191.721 441.418 214.716Z" fill="#7559FF"/>
</svg>
